# xmcd
#
# Track frame offsets:
#	150
#	8438
#	25694
#	30650
#	53120
#	63708
#	73143
#	96079
#	102763
#	114290
#	122779
#	138875
#	151400
#	168115
#	187896
#	205269
#	214988
#	233425
#	238767
#	274052
#	286672
#
# Disc length: 3992 seconds
#
# Revision: 1
# Processed by: cddbd v1.5.2PL0 Copyright (c) Steve Scherf et al.
# Submitted via: EZCDAudioConverter 1.3.4.1
#
DISCID=160f9615
DTITLE=Pye Corner Audio - Black Mill Tapes 1/3
DYEAR=2014
DGENRE=
TTITLE0=Transmission One: Lonesome Vale
TTITLE1=We Have Visitors
TTITLE2=Folk Festival 
TTITLE3=Electronic Rhythm Number Three
TTITLE4=A Dark Door
TTITLE5=Theme Number Four
TTITLE6=Electronic Rhythm Number Eight 
TTITLE7=Building Twelve, Room One
TTITLE8=Theme Number Nine
TTITLE9=Transmission Three: Briar Lane
TTITLE10=Gathering
TTITLE11=Mirror Sequence
TTITLE12=Electronic Rhythm Number Seven
TTITLE13=Transmission Four: Crooked Hill
TTITLE14=Electronic Rhythm Number Four
TTITLE15=Through The King's Wood
TTITLE16=Recrypt
TTITLE17=Theme Number Six
TTITLE18=Toward Light
TTITLE19=Sine Times Nine
TTITLE20=Ecneuqes Rorrim
EXTD=
EXTT0=
EXTT1=
EXTT2=
EXTT3=
EXTT4=
EXTT5=
EXTT6=
EXTT7=
EXTT8=
EXTT9=
EXTT10=
EXTT11=
EXTT12=
EXTT13=
EXTT14=
EXTT15=
EXTT16=
EXTT17=
EXTT18=
EXTT19=
EXTT20=
PLAYORDER=
